<?xml version="1.0" encoding="utf-8"?>
<!-- Generator: Adobe Illustrator 21.1.0, SVG Export Plug-In . SVG Version: 6.00 Build 0)  -->
<svg version="1.1" id="Layer_1" xmlns="http://www.w3.org/2000/svg" xmlns:xlink="http://www.w3.org/1999/xlink" x="0px" y="0px"
	 viewBox="0 0 500 500" style="enable-background:new 0 0 500 500;" xml:space="preserve">
<style type="text/css">
	.st0{fill:none;stroke:#FFFFFF;stroke-width:0.5;stroke-miterlimit:10;}
</style>
<path class="st0" d="M217.4,125.1l-1.1,0.7l-0.2,0.2l-0.2,1.3c0,0.2-0.2,0.3-0.3,0.2l-1-0.8h-0.2l-1.1,0.3c-0.2,0-0.3-0.2-0.2-0.3
	l0.5-1.1v-0.2l-0.7-1.1c-0.2-0.2,0-0.3,0.2-0.3l1.3,0.2h0.2l0.8-1c0.2-0.2,0.3,0,0.3,0.2l0.2,1.1c0,0,0,0.2,0.2,0.2l1.1,0.5
	C217.5,124.7,217.5,125.1,217.4,125.1z"/>
<path class="st0" d="M65.3,88.1l-1,0.8l-0.2,0.2v1.3c0,0.2-0.2,0.3-0.3,0.2l-1-0.7h-0.2l-1.1,0.5c-0.2,0-0.3-0.2-0.3-0.3l0.3-1.1
	v-0.2l-0.8-1c-0.2-0.2,0-0.3,0.2-0.3h1.3c0,0,0.2,0,0.2-0.2l0.7-1c0.2-0.2,0.3-0.2,0.3,0l0.3,1.1c0,0,0,0.2,0.2,0.2l1.1,0.3
	C65.3,87.8,65.4,88,65.3,88.1z"/>
<path class="st0" d="M20.5,49.1h-1.3c0,0-0.2,0-0.2,0.2l-0.8,1c-0.2,0.2-0.3,0.2-0.3,0l-0.3-1.1c0,0,0-0.2-0.2-0.2l-1.1-0.3
	c-0.2,0-0.2-0.3,0-0.3l1-0.7l0.2-0.2v-1.3c0-0.2,0.2-0.3,0.3-0.2l1,0.8h0.2l1.1-0.3c0.2,0,0.3,0.2,0.3,0.3l-0.5,1.1v0.2L20.5,49.1
	C20.9,48.9,20.9,49.1,20.5,49.1z"/>
<path class="st0" d="M41.5,95.9l-0.7,1v0.2l0.5,1.1c0,0.2-0.2,0.3-0.3,0.3l-1.1-0.3h-0.2l-1,0.8c-0.2,0.2-0.3,0-0.3-0.2v-1.3
	c0,0,0-0.2-0.2-0.2l-1-0.7c-0.2-0.2-0.2-0.3,0-0.3l1.1-0.3c0,0,0.2,0,0.2-0.2l0.3-1.1c0-0.2,0.3-0.2,0.3,0l0.8,1l0.2,0.2H41.5
	C41.5,95.6,41.7,95.8,41.5,95.9z"/>
<path class="st0" d="M199.2,52.2l-0.7,1v0.2l0.5,1.1c0,0.2-0.2,0.3-0.3,0.3l-1.1-0.3h-0.2l-1,0.8c-0.2,0.2-0.3,0-0.3-0.2v-1.3
	c0,0,0-0.2-0.2-0.2l-1-0.7c-0.2-0.2-0.2-0.3,0-0.3l1.1-0.3c0,0,0.2,0,0.2-0.2l0.3-1.1c0-0.2,0.3-0.2,0.3,0l0.8,1l0.2,0.2L199.2,52.2
	C199.2,51.8,199.3,52,199.2,52.2z"/>
<path class="st0" d="M78.6,96.1l-1.1-0.3h-0.2l-1,0.8c-0.2,0.2-0.3,0-0.3-0.2v-1.3c0,0,0-0.2-0.2-0.2l-1-0.7c-0.2-0.2-0.2-0.3,0-0.3
	l1.1-0.3c0,0,0.2,0,0.2-0.2l0.3-1.1c0-0.2,0.3-0.2,0.3,0l0.7,1l0.2,0.2h1.3c0.2,0,0.3,0.2,0.2,0.3l-0.8,1V95L78.6,96.1
	C78.9,95.9,78.8,96.1,78.6,96.1z"/>
<path class="st0" d="M72.7,62.4l-0.7-1l-0.2-0.2h-1.3c-0.2,0-0.3-0.2-0.2-0.3l0.8-1v-0.2L71,58.7c0-0.2,0.2-0.3,0.3-0.3l1.1,0.5h0.2
	l1-0.7c0.2-0.2,0.3,0,0.3,0.2v1.3v0.2l1,0.8c0.2,0.2,0.2,0.3,0,0.3l-1.1,0.3c0,0-0.2,0-0.2,0.2l-0.5,1.1
	C73.1,62.6,72.9,62.6,72.7,62.4z"/>
<path class="st0" d="M177.2,61.6h-1.3c0,0-0.2,0-0.2,0.2l-0.7,1c-0.2,0.2-0.3,0.2-0.3,0l-0.3-1.1c0,0,0-0.2-0.2-0.2l-1.1-0.3
	c-0.2,0-0.2-0.3,0-0.3l1-0.7l0.2-0.2v-1.3c0-0.2,0.2-0.3,0.3-0.2l1,0.7h0.2l1.1-0.5c0.2,0,0.3,0.2,0.3,0.3l-0.3,1.1v0.2l0.8,1
	C177.5,61.4,177.4,61.6,177.2,61.6z"/>
<path class="st0" d="M43,48.6l-1.1-0.5h-0.2l-1.1,0.7c-0.2,0.2-0.3,0-0.3-0.2l0.2-1.3v-0.2l-1-0.8c-0.2-0.2,0-0.3,0.2-0.3l1.3-0.2
	c0,0,0.2,0,0.2-0.2l0.5-1.1c0-0.2,0.3-0.2,0.3,0l0.7,1.1l0.2,0.2L44,46c0.2,0,0.3,0.2,0.2,0.3l-0.8,1v0.2l0.3,1.1
	C43.3,48.4,43,48.6,43,48.6z"/>
<path class="st0" d="M96.3,67.5L95,67.3h-0.2l-0.8,1c-0.2,0.2-0.3,0-0.3-0.2L93.4,67c0,0,0-0.2-0.2-0.2l-1.1-0.5
	c-0.2,0-0.2-0.3,0-0.3l1.1-0.7l0.2-0.2l0.2-1.3c0-0.2,0.2-0.3,0.3-0.2l1,0.8H95l1.1-0.3c0.2,0,0.3,0.2,0.2,0.3l-0.5,1.1v0.2l0.7,1
	C96.7,67.3,96.5,67.5,96.3,67.5z"/>
<path class="st0" d="M115.4,96.1l-1.3,0.2c0,0-0.2,0-0.2,0.2l-0.5,1.1c0,0.2-0.3,0.2-0.3,0l-0.5-1.1l-0.2-0.2l-1.3-0.2
	c-0.2,0-0.2-0.2-0.2-0.3l0.8-0.8v-0.2l-0.2-1.3c0-0.2,0.2-0.3,0.3-0.2l1.1,0.7h0.2l1.1-0.7c0.2,0,0.3,0,0.3,0.2l-0.2,1.3V95l0.8,0.8
	C115.7,95.9,115.7,96.1,115.4,96.1z"/>
<path class="st0" d="M139.8,59.3l-1,0.8v0.2l0.2,1.3c0,0.2-0.2,0.3-0.3,0.2l-1.1-0.7h-0.2l-1.1,0.5c-0.2,0-0.3,0-0.3-0.2l0.3-1.1
	v-0.2l-0.8-1c-0.2-0.2,0-0.3,0.2-0.3l1.3-0.2c0,0,0.2,0,0.2-0.2l0.7-1.1c0.2-0.2,0.3-0.2,0.3,0l0.5,1.1l0.2,0.2l1.1,0.2
	C139.8,59,139.8,59.2,139.8,59.3z"/>
<path class="st0" d="M155.4,82.6l-1,0.8v0.2l0.2,1.3c0,0.2-0.2,0.3-0.3,0.2l-1.1-0.7h-0.2l-1.1,0.5c-0.2,0-0.3,0-0.3-0.2l0.3-1.1
	v-0.2l-0.8-1c-0.2-0.2,0-0.3,0.2-0.3l1.3-0.2c0,0,0.2,0,0.2-0.2l0.7-1.1c0.2-0.2,0.3-0.2,0.3,0l0.5,1.1l0.2,0.2l1.1,0.2
	C155.4,82.3,155.6,82.4,155.4,82.6z"/>
<path class="st0" d="M115.5,49.4l-1.1-0.5h-0.2l-1,0.7c-0.2,0.2-0.3,0-0.3-0.2l0.2-1.3v-0.2l-1-0.8c-0.2-0.2,0-0.3,0.2-0.3l1.1-0.3
	c0,0,0.2,0,0.2-0.2l0.5-1.1c0-0.2,0.3-0.2,0.3,0l0.7,1.1l0.2,0.2l1.3,0.2c0.2,0,0.3,0.2,0.2,0.3l-0.8,1v0.2l0.3,1.1
	C115.9,49.2,115.7,49.4,115.5,49.4z"/>
<path class="st0" d="M80.7,102.8l-1.3,0.2c0,0-0.2,0-0.2,0.2l-0.5,1.1c0,0.2-0.3,0.2-0.3,0l-0.5-1.1l-0.2-0.2l-1.3-0.2
	c-0.2,0-0.2-0.2-0.2-0.3l0.8-0.8v-0.2l-0.2-1.3c0-0.2,0.2-0.3,0.3-0.2l1.1,0.7h0.2l1.1-0.7c0.2,0,0.3,0,0.3,0.2l-0.2,1.3v0.2
	l0.8,0.8C81,102.6,80.9,102.8,80.7,102.8z"/>
<path class="st0" d="M153.3,119l-1,0.7l-0.2,0.2v1.3c0,0.2-0.2,0.3-0.3,0.2l-1-0.8h-0.2l-1.1,0.3c-0.2,0-0.3-0.2-0.3-0.3l0.5-1.1
	v-0.2l-0.7-1c-0.2-0.2,0-0.3,0.2-0.3h1.3c0,0,0.2,0,0.2-0.2l0.8-1c0.2-0.2,0.3-0.2,0.3,0l0.3,1.1c0,0,0,0.2,0.2,0.2l1.1,0.3
	C153.3,118.7,153.3,118.9,153.3,119z"/>
<path class="st0" d="M80.4,80l-1.3,0.2c0,0-0.2,0-0.2,0.2l-0.5,1.1c0,0.2-0.3,0.2-0.3,0l-0.5-1.1l-0.2-0.2L76.2,80
	C76,80,76,79.8,76,79.7l0.8-0.8v-0.2l-0.2-1.3c0-0.2,0.2-0.3,0.3-0.2l1.1,0.7h0.2l1.1-0.7c0.2,0,0.3,0,0.3,0.2l-0.2,1.3v0.2l0.8,0.8
	C80.6,79.8,80.6,80,80.4,80z"/>
<path class="st0" d="M145.3,72.3l-1-0.7h-0.2l-1.1,0.5c-0.2,0-0.3-0.2-0.3-0.3l0.3-1.1v-0.2l-0.8-1c-0.2-0.2,0-0.3,0.2-0.3h1.3
	c0,0,0.2,0,0.2-0.2l0.7-1c0.2-0.2,0.3-0.2,0.3,0l0.3,1.1c0,0,0,0.2,0.2,0.2l1.1,0.3c0.2,0,0.2,0.3,0,0.3l-1,0.8l-0.2,0.2L145.3,72.3
	C145.6,72.3,145.5,72.3,145.3,72.3z"/>
<path class="st0" d="M145.8,98.5l-1.1-0.5h-0.2l-1,0.7c-0.2,0.2-0.3,0-0.3-0.2v-1.3v-0.2l-1-0.8c-0.2-0.2-0.2-0.3,0-0.3l1.1-0.3
	c0,0,0.2,0,0.2-0.2l0.5-1.1c0-0.2,0.3-0.2,0.3,0l0.7,1l0.2,0.2h1.3c0.2,0,0.3,0.2,0.2,0.3l-0.8,1v0.2l0.3,1.1
	C146.1,98.4,146,98.5,145.8,98.5z"/>
<path class="st0" d="M169.4,89.4l-1.1-0.3h-0.2l-1,0.8c-0.2,0.2-0.3,0-0.3-0.2l-0.2-1.3c0,0,0-0.2-0.2-0.2l-1.1-0.7
	c-0.2-0.2-0.2-0.3,0-0.3l1.1-0.5c0,0,0.2,0,0.2-0.2l0.3-1.1c0-0.2,0.3-0.2,0.3-0.2l0.8,1h0.2l1.3-0.2c0.2,0,0.3,0.2,0.2,0.3
	l-0.7,1.1v0.2l0.5,1.1C169.7,89.3,169.5,89.4,169.4,89.4z"/>
<path class="st0" d="M159.9,104.7l-1.1-0.3h-0.2l-1,0.8c-0.2,0.2-0.3,0-0.3-0.2l-0.2-1.3c0,0,0-0.2-0.2-0.2l-1.1-0.7
	c-0.2-0.2-0.2-0.3,0-0.3l1.1-0.5c0,0,0.2,0,0.2-0.2l0.3-1.1c0-0.2,0.3-0.2,0.3-0.2l0.8,1h0.2l1.3-0.2c0.2,0,0.3,0.2,0.2,0.3
	l-0.7,1.1v0.2l0.5,1.1C160.3,104.6,160.1,104.7,159.9,104.7z"/>
<path class="st0" d="M160.8,56.4l-0.8-1c0,0-0.2-0.2-0.2,0h-1.3c-0.2,0-0.3-0.2-0.2-0.3l0.7-1V54l-0.5-1.1c0-0.2,0.2-0.3,0.3-0.3
	l1.1,0.3h0.2l1.3-0.8c0.2-0.2,0.3,0,0.3,0.2v1.3c0,0,0,0.2,0.2,0.2l1,0.7c0.2,0.2,0.2,0.3,0,0.3l-1.1,0.5c0,0-0.2,0-0.2,0.2
	l-0.3,1.1C161.1,56.6,160.9,56.6,160.8,56.4z"/>
<path class="st0" d="M116.5,80.5l-0.8-1h-0.2l-1.3,0.2c-0.2,0-0.3-0.2-0.2-0.3l0.7-1.1V78l-0.5-1.1c0-0.2,0-0.3,0.2-0.3l1.3,0.2h0.2
	l0.8-0.8c0.2-0.2,0.3,0,0.3,0.2l0.2,1.3c0,0,0,0.2,0.2,0.2l1.1,0.7c0.2,0,0.2,0.3,0,0.3l-1.1,0.5l-0.2,0.2l-0.2,1.3
	C116.8,80.5,116.7,80.6,116.5,80.5z"/>
<path class="st0" d="M216.6,54.3l-0.8-1h-0.2l-1.3,0.2c-0.2,0-0.3-0.2-0.2-0.3l0.7-1.1v-0.2l-0.5-1.1c0-0.2,0-0.3,0.2-0.3l1.3,0.2
	h0.2l0.8-0.8c0.2-0.2,0.3,0,0.3,0.2l0.2,1.3c0,0,0,0.2,0.2,0.2l1.1,0.7c0.2,0,0.2,0.3,0,0.3l-1.1,0.5l-0.2,0.2l-0.2,1.3
	C216.9,54.3,216.7,54.5,216.6,54.3z"/>
<path class="st0" d="M137.8,74.6l-0.8-1h-0.2l-1.3,0.2c-0.2,0-0.3-0.2-0.2-0.3l0.7-1.1v-0.2l-0.5-1.1c0-0.2,0-0.3,0.2-0.3l1.3,0.2
	h0.2l0.8-0.8c0.2-0.2,0.3,0,0.3,0.2l0.2,1.3c0,0,0,0.2,0.2,0.2l1.1,0.7c0.2,0,0.2,0.3,0,0.3l-1.1,0.5l-0.2,0.2l-0.2,1.3
	C138.1,74.6,137.8,74.6,137.8,74.6z"/>
<path class="st0" d="M201.4,96.1l-1.1,0.7l-0.2,0.2l-0.2,1.3c0,0.2-0.2,0.3-0.3,0.2l-1-0.8h-0.2l-1.1,0.3c-0.2,0-0.3-0.2-0.2-0.3
	l0.5-1.1v-0.2l-0.7-1.1c-0.2-0.2,0-0.3,0.2-0.3l1.3,0.2h0.2l0.8-1c0.2-0.2,0.3,0,0.3,0.2l0.2,1.3c0,0,0,0.2,0.2,0.2l1.1,0.5
	C201.6,95.8,201.6,95.9,201.4,96.1z"/>
<path class="st0" d="M215.4,66.7l-1,0.8l-0.2,0.2v1.3c0,0.2-0.2,0.3-0.3,0.2l-1-0.7h-0.2l-1.1,0.5c-0.2,0-0.3-0.2-0.3-0.3l0.3-1.1
	v-0.2l-0.8-1c-0.2-0.2,0-0.3,0.2-0.3h1.3c0,0,0.2,0,0.2-0.2l0.7-1c0.2-0.2,0.3-0.2,0.3,0l0.3,1.1c0,0,0,0.2,0.2,0.2l1.1,0.3
	C215.6,66.3,215.6,66.7,215.4,66.7z"/>
<path class="st0" d="M229.2,91.4l-1,0.8l-0.2,0.2v1.3c0,0.2-0.2,0.3-0.3,0.2l-1-0.7h-0.2l-1.1,0.5c-0.2,0-0.3-0.2-0.3-0.3l0.3-1.1
	V92l-0.8-1c-0.2-0.2,0-0.3,0.2-0.3h1.3c0,0,0.2,0,0.2-0.2l0.7-1c0.2-0.2,0.3-0.2,0.3,0l0.3,1.1c0,0,0,0.2,0.2,0.2l1.1,0.3
	C229.2,91.1,229.4,91.2,229.2,91.4z"/>
<path class="st0" d="M220,80.2l-1-0.8h-0.2l-1.1,0.3c-0.2,0-0.3-0.2-0.3-0.3l0.5-1.1V78l-0.7-1c-0.2-0.2,0-0.3,0.2-0.3h1.3h0.2
	l0.8-1c0.2-0.2,0.3-0.2,0.3,0l0.3,1.1c0,0,0,0.2,0.2,0.2l1.1,0.5c0.2,0,0.2,0.3,0,0.3l-1,0.7l-0.2,0.2V80
	C220.5,80.2,220.1,80.3,220,80.2z"/>
<path class="st0" d="M242.6,99.4l-1.1-0.3h-0.2l-1,0.8c-0.2,0.2-0.3,0-0.3-0.2v-1.3c0,0,0-0.2-0.2-0.2l-1-0.7
	c-0.2-0.2-0.2-0.3,0-0.3l1.1-0.3c0,0,0.2,0,0.2-0.2l0.3-1.1c0-0.2,0.3-0.2,0.3,0l0.7,1l0.2,0.2h1.3c0.2,0,0.3,0.2,0.2,0.3l-0.8,1
	v0.2L242.6,99.4C242.9,99.2,242.7,99.4,242.6,99.4z"/>
<path class="st0" d="M236.7,65.5l-0.7-1l-0.2-0.2h-1.3c-0.2,0-0.3-0.2-0.2-0.3l0.8-1v-0.2l-0.3-1.1c0-0.2,0.2-0.3,0.3-0.3l1.1,0.5
	h0.2l1-0.7c0.2-0.2,0.3,0,0.3,0.2v1.3v0.2l1,0.8c0.2,0.2,0.2,0.3,0,0.3l-1.1,0.3c0,0-0.2,0-0.2,0.2l-0.5,1.1
	C237.1,65.7,236.9,65.7,236.7,65.5z"/>
<path class="st0" d="M196.7,81l-1.1-0.5h-0.2l-1.1,0.7c-0.2,0.2-0.3,0-0.3-0.2l0.2-1.3v-0.2l-1-0.8c-0.2-0.2,0-0.3,0.2-0.3l1.3-0.2
	c0,0,0.2,0,0.2-0.2l0.5-1.1c0-0.2,0.3-0.2,0.3,0l0.7,1.1l0.2,0.2l1.3,0.2c0.2,0,0.3,0.2,0.2,0.3l-0.8,1v0.2l0.3,1.3
	C197,80.8,196.9,81,196.7,81z"/>
<path class="st0" d="M244.4,83.2l-1.3,0.2c0,0-0.2,0-0.2,0.2l-0.5,1.1c0,0.2-0.3,0.2-0.3,0l-0.5-1.1l-0.2-0.2l-1.3-0.2
	c-0.2,0-0.2-0.2-0.2-0.3l0.8-0.8v-0.2l-0.2-1.3c0-0.2,0.2-0.3,0.3-0.2l1.1,0.7h0.2l1.1-0.7c0.2,0,0.3,0,0.3,0.2l-0.2,1.3v0.2
	l0.8,0.8C244.7,82.9,244.5,83.2,244.4,83.2z"/>
<path class="st0" d="M54,116.9l-1.3,0.2c0,0-0.2,0-0.2,0.2l-0.5,1.1c0,0.2-0.3,0.2-0.3,0l-0.5-1.1l-0.2-0.2l-1.3-0.2
	c-0.2,0-0.2-0.2-0.2-0.3l0.8-0.8v-0.2l-0.2-1.3c0-0.2,0.2-0.3,0.3-0.2l1.1,0.7h0.2l1.1-0.7c0.2,0,0.3,0,0.3,0.2l-0.2,1.3v0.2
	l0.8,0.8C54.2,116.8,54.2,116.9,54,116.9z"/>
<path class="st0" d="M399.7,36.2l-1,0.8l-0.2,0.2v1.3c0,0.2-0.2,0.3-0.3,0.2l-1-0.7h-0.2l-1.1,0.5c-0.2,0-0.3-0.2-0.3-0.3L396,37
	v-0.2l-0.8-1c-0.2-0.2,0-0.3,0.2-0.3h1.3c0,0,0.2,0,0.2-0.2l0.7-1c0.2-0.2,0.3-0.2,0.3,0l0.3,1.1c0,0,0,0.2,0.2,0.2l1.1,0.3
	C399.9,35.9,399.9,36.2,399.7,36.2z"/>
<path class="st0" d="M376,44l-0.7,1v0.2l0.5,1.1c0,0.2-0.2,0.3-0.3,0.3l-1.1-0.3h-0.2l-1,0.8c-0.2,0.2-0.3,0-0.3-0.2v-1.3
	c0,0,0-0.2-0.2-0.2l-1-0.7c-0.2-0.2-0.2-0.3,0-0.3l1.1-0.3c0,0,0.2,0,0.2-0.2l0.3-1.1c0-0.2,0.3-0.2,0.3,0l0.8,1l0.2,0.2L376,44
	C376,43.7,376.1,43.9,376,44z"/>
<path class="st0" d="M242.3,42.6l-0.7,1v0.2l0.5,1.1c0,0.2-0.2,0.3-0.3,0.3l-1.1-0.3h-0.2l-1,0.8c-0.2,0.2-0.3,0-0.3-0.2v-1.3
	c0,0,0-0.2-0.2-0.2l-1-0.7c-0.2-0.2-0.2-0.3,0-0.3l1.1-0.3c0,0,0.2,0,0.2-0.2l0.3-1.1c0-0.2,0.3-0.2,0.3,0l0.8,1l0.2,0.2L242.3,42.6
	C242.3,42.2,242.4,42.4,242.3,42.6z"/>
<path class="st0" d="M413.1,44.2l-1.1-0.3h-0.2l-1,0.8c-0.2,0.2-0.3,0-0.3-0.2v-1.3c0,0,0-0.2-0.2-0.2l-1-0.7
	c-0.2-0.2-0.2-0.3,0-0.3l1.1-0.3c0,0,0.2,0,0.2-0.2l0.3-1.1c0-0.2,0.3-0.2,0.3,0l0.7,1l0.2,0.2h1.3c0.2,0,0.3,0.2,0.2,0.3l-0.8,1
	v0.2L413.1,44.2C413.4,44,413.2,44.2,413.1,44.2z"/>
<path class="st0" d="M295.1,35.9l-1.1-0.3h-0.2l-1,0.8c-0.2,0.2-0.3,0-0.3-0.2v-1.3c0,0,0-0.2-0.2-0.2l-1-0.7
	c-0.2-0.2-0.2-0.3,0-0.3l1.1-0.3c0,0,0.2,0,0.2-0.2l0.3-1.1c0-0.2,0.3-0.2,0.3,0l0.7,1l0.2,0.2h1.3c0.2,0,0.3,0.2,0.2,0.3l-0.8,1
	v0.2L295.1,35.9C295.5,35.7,295.3,35.9,295.1,35.9z"/>
<path class="st0" d="M450,44.4l-1.3,0.2c0,0-0.2,0-0.2,0.2l-0.5,1.1c0,0.2-0.3,0.2-0.3,0l-0.5-1.1l-0.2-0.2l-1.3-0.2
	c-0.2,0-0.2-0.2-0.2-0.3l0.8-0.8v-0.2l-0.2-1.3c0-0.2,0.2-0.3,0.3-0.2l1.1,0.7h0.2l1.1-0.7c0.2,0,0.3,0,0.3,0.2l-0.2,1.3v0.2L450,44
	C450.2,44,450.2,44.4,450,44.4z"/>
<path class="st0" d="M415.4,50.9l-1.3,0.2c0,0-0.2,0-0.2,0.2l-0.5,1.1c0,0.2-0.3,0.2-0.3,0l-0.5-1.1l-0.2-0.2l-1.3-0.2
	c-0.2,0-0.2-0.2-0.2-0.3l0.8-0.8v-0.2l-0.2-1.3c0-0.2,0.2-0.3,0.3-0.2l1.1,0.7h0.2l1.1-0.7c0.2,0,0.3,0,0.3,0.2l-0.2,1.3v0.2
	l0.8,0.8C415.5,50.7,415.5,50.9,415.4,50.9z"/>
<path class="st0" d="M480.3,46.6l-1.1-0.5H479l-1,0.7c-0.2,0.2-0.3,0-0.3-0.2v-1.3v-0.2l-1-0.8c-0.2-0.2-0.2-0.3,0-0.3l1.1-0.3
	c0,0,0.2,0,0.2-0.2l0.5-1.1c0-0.2,0.3-0.2,0.3,0l0.7,1l0.2,0.2h1.3c0.2,0,0.3,0.2,0.2,0.3l-0.8,1V45l0.3,1.1
	C480.6,46.5,480.4,46.6,480.3,46.6z"/>
<path class="st0" d="M248.8,35.9h-1.3c0,0-0.2,0-0.2,0.2l-0.7,1c-0.2,0.2-0.3,0.2-0.3,0l-0.3-1.1c0,0,0-0.2-0.2-0.2l-1.1-0.3
	c-0.2,0-0.2-0.3,0-0.3l1-0.7l0.2-0.2V33c0-0.2,0.2-0.3,0.3-0.2l1,0.7h0.2l1.1-0.5c0.2,0,0.3,0.2,0.3,0.3l-0.3,1.1v0.2l0.8,1
	C249.1,35.7,248.9,35.9,248.8,35.9z"/>
<path class="st0" d="M388.5,65l-1.3,0.2c0,0-0.2,0-0.2,0.2l-0.5,1.1c0,0.2-0.3,0.2-0.3,0l-0.5-1.1l-0.2-0.2l-1.3-0.2
	c-0.2,0-0.2-0.2-0.2-0.3l0.8-0.8v-0.2l-0.2-1.3c0-0.2,0.2-0.3,0.3-0.2l1.1,0.7h0.2l1.1-0.7c0.2,0,0.3,0,0.3,0.2l-0.2,1.3v0.2
	l0.8,0.8C388.7,64.9,388.7,65,388.5,65z"/>
<path class="st0" d="M301.8,58.8l-1.1,0.3c0,0-0.2,0-0.2,0.2l-0.3,1.1c0,0.2-0.3,0.2-0.3,0l-0.7-1l-0.2-0.2h-1.3
	c-0.2,0-0.3-0.2-0.2-0.3l0.8-1v-0.2l-0.3-1.1c0-0.2,0.2-0.3,0.3-0.3l1.1,0.5h0.2l1-0.7c0.2-0.2,0.3,0,0.3,0.2v1.3c0,0,0,0.2,0.2,0.2
	l1,0.8C302,58.5,302,58.8,301.8,58.8z"/>
<path class="st0" d="M286,87.6l-1.1-0.5h-0.2l-1.1,0.7c-0.2,0.2-0.3,0-0.3-0.2l0.2-1.3v-0.2l-1-0.8c-0.2-0.2,0-0.3,0.2-0.3l1.3-0.2
	c0,0,0.2,0,0.2-0.2l0.5-1.1c0-0.2,0.3-0.2,0.3,0l0.7,1.1l0.2,0.2L287,85c0.2,0,0.3,0.2,0.2,0.3l-0.8,1v0.2l0.3,1.1
	C286.3,87.6,286.2,87.6,286,87.6z"/>
<path class="st0" d="M318.9,56.6l-1.1-0.3h-0.2l-1,0.8c-0.2,0.2-0.3,0-0.3-0.2l-0.2-1.3c0,0,0-0.2-0.2-0.2l-1.1-0.7
	c-0.2-0.2-0.2-0.3,0-0.3L316,54l0.2-0.2l0.2-1.3c0-0.2,0.2-0.2,0.3-0.2l1,1.3h0.2l1.3-0.2c0.2,0,0.3,0.2,0.2,0.3l-0.7,1.1v0.2
	l0.5,1.1C319.2,56.4,319,56.6,318.9,56.6z"/>
<path class="st0" d="M472.9,112.4l-1.1,0.3c0,0-0.2,0-0.2,0.2l-0.3,1.1c0,0.2-0.3,0.2-0.3,0l-0.7-1l-0.2-0.2h-1.3
	c-0.2,0-0.3-0.2-0.2-0.3l0.8-1v-0.2l-0.3-1.1c0-0.2,0.2-0.3,0.3-0.3l1.1,0.5h0.2l1-0.7c0.2-0.2,0.3,0,0.3,0.2v1.3c0,0,0,0.2,0.2,0.2
	l1,0.8C473.1,112.2,473.1,112.4,472.9,112.4z"/>
<path class="st0" d="M449.4,68.4l-1,0.8l-0.2,0.2v1.3c0,0.2-0.2,0.3-0.3,0.2l-1-0.7h-0.2l-1.1,0.5c-0.2,0-0.3-0.2-0.3-0.3l0.3-1.1
	v-0.2l-0.8-1c-0.2-0.2,0-0.3,0.2-0.3h1.3c0,0,0.2,0,0.2-0.2l0.7-1c0.2-0.2,0.3-0.2,0.3,0l0.3,1.1c0,0,0,0.2,0.2,0.2l1.1,0.3
	C449.5,68.1,449.5,68.4,449.4,68.4z"/>
<path class="st0" d="M371.4,134l-0.7,1v0.2l0.5,1.1c0,0.2-0.2,0.3-0.3,0.3l-1.1-0.3h-0.2l-1,0.8c-0.2,0.2-0.3,0-0.3-0.2v-1.3
	c0,0,0-0.2-0.2-0.2l-1-0.7c-0.2-0.2-0.2-0.3,0-0.3l1.1-0.3c0,0,0.2,0,0.2-0.2l0.3-1.1c0-0.2,0.3-0.2,0.3,0l0.8,1l0.2,0.2H371.4
	C371.4,133.7,371.4,133.8,371.4,134z"/>
<path class="st0" d="M453.9,81.9l-1-0.8h-0.2l-1.1,0.3c-0.2,0-0.3-0.2-0.3-0.3l0.5-1.1v-0.2l-0.7-1c-0.2-0.2,0-0.3,0.2-0.3h1.3h0.2
	l0.8-1c0.2-0.2,0.3-0.2,0.3,0l0.3,1.1c0,0,0,0.2,0.2,0.2l1.1,0.5c0.2,0,0.2,0.3,0,0.3l-1,0.7l-0.2,0.2v1.3
	C454.2,81.9,454.1,81.9,453.9,81.9z"/>
<path class="st0" d="M424.1,127.2l-1.1-0.3h-0.2l-1,0.8c-0.2,0.2-0.3,0-0.3-0.2v-1.3c0,0,0-0.2-0.2-0.2l-1-0.7
	c-0.2-0.2-0.2-0.3,0-0.3l1.1-0.3c0,0,0.2,0,0.2-0.2l0.3-1.1c0-0.2,0.3-0.2,0.3,0l0.7,1l0.2,0.2h1.3c0.2,0,0.3,0.2,0.2,0.3l-0.8,1
	v0.2L424.1,127.2C424.5,127.2,424.3,127.3,424.1,127.2z"/>
<path class="st0" d="M430.6,82.6l-1.1-0.5h-0.2l-1.1,0.7c-0.2,0.2-0.3,0-0.3-0.2l0.3-1.3v-0.2l-1-0.8c-0.2-0.2,0-0.3,0.2-0.3
	l1.3-0.2c0,0,0.2,0,0.2-0.2l0.5-1.1c0-0.2,0.3-0.2,0.3,0l0.7,1.1l0.2,0.2l1.3,0.2c0.2,0,0.3,0.2,0.2,0.3l-0.8,1v0.2l0.3,1.1
	C431,82.6,430.8,82.8,430.6,82.6z"/>
<path class="st0" d="M408.2,110.9h-1.3c0,0-0.2,0-0.2,0.2l-0.8,1c-0.2,0.2-0.3,0.2-0.3,0l-0.3-1.1c0,0,0-0.2-0.2-0.2l-1.1-0.3
	c-0.2,0-0.2-0.3,0-0.3l1-0.7l0.2-0.2V108c0-0.2,0.2-0.3,0.3-0.2l1,0.8h0.2l1.1-0.3c0.2,0,0.3,0.2,0.3,0.3l-0.5,1.1v0.2L408.2,110.9
	C408.5,110.7,408.4,110.9,408.2,110.9z"/>
<path class="st0" d="M330.9,109.8l-1.3-0.7h-0.2l-1.1,0.7c-0.2,0.2-0.3,0-0.3-0.2l0.2-1.3v-0.2l-1-0.8c-0.2-0.2,0-0.3,0.2-0.3
	l1.3-0.2c0,0,0.2,0,0.2-0.2l0.5-1.1c0-0.2,0.3-0.2,0.3,0l0.7,1.1l0.2,0.2l1.3,0.2c0.2,0,0.3,0.2,0.2,0.3l-1,1v0.2l0.3,1.3
	C331.2,109.8,331.1,109.9,330.9,109.8z"/>
<path class="st0" d="M430.5,110.2l-1.1-0.5h-0.2l-1.1,0.7c-0.2,0.2-0.3,0-0.3-0.2l0.2-1.3v-0.2l-1-0.8c-0.2-0.2,0-0.3,0.2-0.3
	l1.1-0.3c0,0,0.2,0,0.2-0.2l0.5-1.1c0-0.2,0.3-0.2,0.3,0l0.7,1.1l0.2,0.2l1.3,0.2c0.2,0,0.3,0.2,0.2,0.3l-0.8,1v0.2l0.3,1.1
	C430.8,110.2,430.6,110.4,430.5,110.2z"/>
<path class="st0" d="M359.9,109.4l-1.3,0.2c0,0-0.2,0-0.2,0.2l-0.7,1.1c-0.2,0.2-0.3,0.2-0.5,0l-0.7-1.1l-0.2-0.2l-1.3-0.2
	c-0.2,0-0.3-0.3-0.2-0.3l1-1V108l-0.2-1.3c0-0.2,0.2-0.3,0.3-0.2l1.1,0.7h0.2l1.1-0.7c0.2-0.2,0.3,0,0.3,0.2l-0.2,1.3v0.2l1,1
	C360,109.3,360,109.4,359.9,109.4z"/>
<path class="st0" d="M352.9,110.6l-0.8,1.1v0.2l0.5,1.3c0,0.2-0.2,0.3-0.3,0.3l-1.3-0.3h-0.2l-1.1,0.8c-0.2,0.2-0.3,0-0.3-0.2v-1.3
	c0,0,0-0.2-0.2-0.2l-1.1-0.7c-0.2-0.2-0.2-0.3,0-0.3l1.3-0.5c0,0,0.2,0,0.2-0.2l0.3-1.3c0-0.2,0.3-0.2,0.3,0l0.8,1l0.2,0.2h1.3
	C352.9,110.2,353,110.4,352.9,110.6z"/>
<path class="st0" d="M329.3,90.4l-1.1,0.8l-0.2,0.2v1.3c0,0.2-0.2,0.3-0.3,0.2l-1.1-0.8h-0.2l-1.3,0.5c-0.2,0-0.3-0.2-0.3-0.3
	l0.5-1.3v-0.2l-0.8-1.1c-0.2-0.2,0-0.3,0.2-0.3h1.3c0,0,0.2,0,0.2-0.2l0.8-1.1c0.2-0.2,0.3-0.2,0.3,0l0.3,1.3c0,0,0,0.2,0.2,0.2
	l1.3,0.3C329.3,90.1,329.5,90.2,329.3,90.4z"/>
<path class="st0" d="M366.1,92.4l-0.8-1h-0.2l-1.3,0.2c-0.2,0-0.3-0.2-0.2-0.3l0.7-1.1v-0.2l-0.7-1.1c0-0.2,0-0.3,0.2-0.3l1.3,0.2
	h0.2l0.8-0.8c0.2-0.2,0.3,0,0.3,0.2l0.2,1.3c0,0,0,0.2,0.2,0.2l1.1,0.5c0.2,0,0.2,0.3,0,0.3l-1.1,0.5l-0.2,0.2l-0.2,1.3
	C366.4,92.4,366.2,92.4,366.1,92.4z"/>
<path class="st0" d="M377.8,120.7l-1-0.8h-0.2l-1.1,0.3c-0.2,0-0.3-0.2-0.3-0.3l0.5-1.1v-0.2l-0.7-1c-0.2-0.2,0-0.3,0.2-0.3h1.3
	c0,0,0.2,0,0.2-0.2l0.8-1c0.2-0.2,0.3-0.2,0.3,0l0.3,1.1c0,0,0,0.2,0.2,0.2l1.1,0.5c0.2,0,0.2,0.3,0,0.3l-1,0.7l-0.2,0.2v1.3
	C378.1,120.7,377.9,120.7,377.8,120.7z"/>
<path class="st0" d="M377.9,127.2h-1.3c0,0-0.2,0-0.2,0.2l-0.7,1c-0.2,0.2-0.3,0.2-0.3,0l-0.3-1.1c0,0,0-0.2-0.2-0.2l-1.1-0.3
	c-0.2,0-0.2-0.3,0-0.3l1-0.7l0.2-0.2v-1.3c0-0.2,0.2-0.3,0.3-0.2l1,0.7h0.2l1.1-0.5c0.2,0,0.3,0.2,0.3,0.3l-0.3,1.1v0.2l0.8,1
	C378.1,127,378.1,127.2,377.9,127.2z"/>
<path class="st0" d="M431,150.1l-1.1,0.3c0,0-0.2,0-0.2,0.2l-0.3,1.1c0,0.2-0.3,0.2-0.3,0l-0.7-1l-0.2-0.2h-1.3
	c-0.2,0-0.3-0.2-0.2-0.3l0.8-1v-0.2l-0.3-1.1c0-0.2,0.2-0.3,0.3-0.3l1.1,0.5h0.2l1-0.7c0.2-0.2,0.3,0,0.3,0.2v1.3c0,0,0,0.2,0.2,0.2
	l1,0.8C431.1,149.9,431.1,150.1,431,150.1z"/>
<path class="st0" d="M415.2,178.9l-1.1-0.5h-0.2l-1.1,0.7c-0.2,0.2-0.3,0-0.3-0.2l0.2-1.3v-0.2l-1-0.8c-0.2-0.2,0-0.3,0.2-0.3
	l1.3-0.2c0,0,0.2,0,0.2-0.2l0.5-1.1c0-0.2,0.3-0.2,0.3,0l0.7,1.1l0.2,0.2l1.3,0.2c0.2,0,0.3,0.2,0.2,0.3l-1.1,0.7v0.2l0.3,1.1
	C415.5,178.9,415.4,179.1,415.2,178.9z"/>
<path class="st0" d="M447.9,147.8l-1.1-0.3h-0.2l-1,0.8c-0.2,0.2-0.3,0-0.3-0.2l-0.2-1.3c0,0,0-0.2-0.2-0.2l-1.1-0.7
	c-0.2-0.2-0.2-0.3,0-0.3l1.1-0.5l0.2-0.2l0.2-1.3c0-0.2,0.2-0.2,0.3-0.2l0.8,1h0.2l1.3-0.2c0.2,0,0.3,0.2,0.2,0.3l-0.7,1.1v0.2
	l0.5,1.1C448.2,147.7,448.1,147.8,447.9,147.8z"/>
<path class="st0" d="M314.5,18l-1.1,0.7l-0.2,0.2l-0.2,1.3c0,0.2-0.2,0.3-0.3,0.2l-1-0.8h-0.2l-1.1,0.3c-0.2,0-0.3-0.2-0.2-0.3
	l0.5-1.1v-0.2l-0.7-1.1c-0.2-0.2,0-0.3,0.2-0.3l1.3,0.2h0.2l0.8-1c0.2-0.2,0.3,0,0.3,0.2l0.2,1.1c0,0,0,0.2,0.2,0.2l1.1,0.5
	C314.7,17.7,314.7,17.8,314.5,18z"/>
<path class="st0" d="M250.4,12l-1,0.7l-0.2,0.2v1.3c0,0.2-0.2,0.3-0.3,0.2l-1-0.8h-0.2l-1.1,0.3c-0.2,0-0.3-0.2-0.3-0.3l0.5-1.1
	v-0.2l-0.7-1c-0.2-0.2,0-0.3,0.2-0.3h1.3c0,0,0.2,0,0.2-0.2l0.8-1c0.2-0.2,0.3-0.2,0.3,0l0.3,1.1c0,0,0,0.2,0.2,0.2l1.1,0.3
	C250.4,11.7,250.4,11.8,250.4,12z"/>
<path class="st0" d="M151.2,9.7l-1.3,0.2c0,0-0.2,0-0.2,0.2l-0.5,1.1c0,0.2-0.3,0.2-0.3,0l-0.5-1.1l-0.2-0.2l-1.3-0.2
	c-0.2,0-0.2-0.2-0.2-0.3l0.8-0.8V8.4l-0.2-1.3c0-0.2,0.2-0.3,0.3-0.2l1.1,0.7h0.2l1.1-0.7c0.2,0,0.3,0,0.3,0.2l-0.2,1.3v0.2l0.8,0.8
	C151.3,9.6,151.3,9.7,151.2,9.7z"/>
<path class="st0" d="M64.5,3.5l-1.1,0.3c0,0-0.2,0-0.2,0.2l-0.3,1.1c0,0.2-0.3,0.2-0.3,0l-0.7-1L61.7,4h-1.3c-0.2,0-0.3-0.2-0.2-0.3
	l0.8-1V2.6l-0.3-1.1c0-0.2,0.2-0.3,0.3-0.3l1.1,0.5h0.2l1-0.7c0.2-0.2,0.3,0,0.3,0.2v1.3c0,0,0,0.2,0.2,0.2l1,0.8
	C64.6,3.2,64.6,3.5,64.5,3.5z"/>
<path class="st0" d="M48.7,32.3l-1.1-0.5h-0.2l-1.1,0.7c-0.2,0.2-0.3,0-0.3-0.2l0.2-1.3v-0.2l-1-0.8c-0.2-0.2,0-0.3,0.2-0.3l1.3-0.2
	c0,0,0.2,0,0.2-0.2l0.5-1.1c0-0.2,0.3-0.2,0.3,0l0.7,1.1l0.2,0.2l1.3,0.2c0.2,0,0.3,0.2,0.2,0.3L49,31v0.2l0.3,1.1
	C49,32.3,48.8,32.5,48.7,32.3z"/>
<path class="st0" d="M468.5,26.8l-0.7,1v0.2l0.5,1.1c0,0.2-0.2,0.3-0.3,0.3l-1.1-0.3h-0.2l-1,0.8c-0.2,0.2-0.3,0-0.3-0.2v-1.3
	c0,0,0-0.2-0.2-0.2l-1-0.7c-0.2-0.2-0.2-0.3,0-0.3l1.1-0.3c0,0,0.2,0,0.2-0.2l0.3-1.1c0-0.2,0.3-0.2,0.3,0l0.8,1l0.2,0.2L468.5,26.8
	C468.5,26.5,468.5,26.6,468.5,26.8z"/>
<path class="st0" d="M457,2.4l-1.3,0.2c0,0-0.2,0-0.2,0.2l-0.7,1.1c-0.2,0.2-0.3,0.2-0.5,0l-0.7-1.1l-0.2-0.2l-1.3-0.2
	c-0.2,0-0.3-0.3-0.2-0.3l1-1V0.9l-0.2-1.3c0-0.2,0.2-0.3,0.3-0.2l1.1,0.7h0.2l1.1-0.7c0.2-0.2,0.3,0,0.3,0.2l-0.2,1.3v0.2l1,1
	C457.2,2.1,457.2,2.2,457,2.4z"/>
<path class="st0" d="M450,3.4l-0.8,1.1v0.2l0.5,1.3c0,0.2-0.2,0.3-0.3,0.3L448.1,6h-0.2l-1.1,0.8c-0.2,0.2-0.3,0-0.3-0.2V5.3
	c0,0,0-0.2-0.2-0.2l-1.1-0.7c-0.2-0.2-0.2-0.3,0-0.3l1.3-0.5c0,0,0.2,0,0.2-0.2l0.3-1.3c0-0.2,0.3-0.2,0.3,0l0.8,1l0.2,0.2h1.3
	C450,3,450.2,3.2,450,3.4z"/>
<path class="st0" d="M474.9,13.5l-1-0.8h-0.2l-1.1,0.3c-0.2,0-0.3-0.2-0.3-0.3l0.5-1.1v-0.2l-0.7-1c-0.2-0.2,0-0.3,0.2-0.3h1.3
	c0,0,0.2,0,0.2-0.2l0.8-1c0.2-0.2,0.3-0.2,0.3,0l0.3,1.1c0,0,0,0.2,0.2,0.2l1.1,0.5c0.2,0,0.2,0.3,0,0.3l-1,0.7l-0.2,0.2v1.3
	C475.2,13.5,475.1,13.6,474.9,13.5z"/>
<path class="st0" d="M475.1,20.1h-1.3c0,0-0.2,0-0.2,0.2l-0.7,1c-0.2,0.2-0.3,0.2-0.3,0l-0.3-1.1c0,0,0-0.2-0.2-0.2l-1.1-0.3
	c-0.2,0-0.2-0.3,0-0.3l1-0.7l0.2-0.2v-1.3c0-0.2,0.2-0.3,0.3-0.2l1,0.7h0.2l1.1-0.5c0.2,0,0.3,0.2,0.3,0.3l-0.3,1.1v0.2l0.8,1
	C475.2,20,475.2,20.1,475.1,20.1z"/>
</svg>
