<?xml version="1.0" encoding="utf-8"?>
<!-- Generator: Adobe Illustrator 21.1.0, SVG Export Plug-In . SVG Version: 6.00 Build 0)  -->
<svg version="1.1" id="Layer_1" xmlns="http://www.w3.org/2000/svg" xmlns:xlink="http://www.w3.org/1999/xlink" x="0px" y="0px"
	 viewBox="0 0 500 500" style="enable-background:new 0 0 500 500;" xml:space="preserve">
<style type="text/css">
	.st0{fill:none;stroke:#FFFFFF;stroke-width:0.5;stroke-miterlimit:10;}
</style>
<path class="st0" d="M264.4,68.3l0.7-0.4l0.1-0.1l0.1-0.8c0-0.1,0.1-0.2,0.2-0.1l0.6,0.5h0.1l0.7-0.2c0.1,0,0.2,0.1,0.1,0.2
	l-0.3,0.7v0.1l0.4,0.7c0.1,0.1,0,0.2-0.1,0.2l-0.8-0.1H266l-0.5,0.6c-0.1,0.1-0.2,0-0.2-0.1l-0.1-0.7c0,0,0-0.1-0.1-0.1L264.4,68.3
	C264.3,68.5,264.3,68.3,264.4,68.3z"/>
<path class="st0" d="M389.2,99.1l0.6-0.5l0.1-0.1v-0.8c0-0.1,0.1-0.2,0.2-0.1l0.6,0.4h0.1l0.7-0.3c0.1,0,0.2,0.1,0.2,0.2l-0.2,0.7
	v0.1l0.5,0.6c0.1,0.1,0,0.2-0.1,0.2H391c0,0-0.1,0-0.1,0.1l-0.4,0.6c-0.1,0.1-0.2,0.1-0.2,0l-0.2-0.7c0,0,0-0.1-0.1-0.1l-0.7-0.2
	C389.2,99.3,389.1,99.2,389.2,99.1z"/>
<path class="st0" d="M394.7,113.6h0.8c0,0,0.1,0,0.1-0.1l0.5-0.6c0.1-0.1,0.2-0.1,0.2,0l0.2,0.7c0,0,0,0.1,0.1,0.1l0.7,0.2
	c0.1,0,0.1,0.2,0,0.2l-0.6,0.4l-0.1,0.1v0.8c0,0.1-0.1,0.2-0.2,0.1l-0.6-0.5h-0.1l-0.7,0.2c-0.1,0-0.2-0.1-0.2-0.2l0.3-0.7v-0.1
	L394.7,113.6C394.5,113.7,394.5,113.6,394.7,113.6z"/>
<path class="st0" d="M393.3,81.6l0.4-0.6v-0.1l-0.3-0.7c0-0.1,0.1-0.2,0.2-0.2l0.7,0.2h0.1l0.6-0.5c0.1-0.1,0.2,0,0.2,0.1v0.8
	c0,0,0,0.1,0.1,0.1l0.6,0.4c0.1,0.1,0.1,0.2,0,0.2l-0.7,0.2c0,0-0.1,0-0.1,0.1l-0.2,0.7c0,0.1-0.2,0.1-0.2,0l-0.5-0.6l-0.1-0.1
	H393.3C393.3,81.8,393.2,81.7,393.3,81.6z"/>
<path class="st0" d="M278.1,105.1l0.4-0.6v-0.1l-0.3-0.7c0-0.1,0.1-0.2,0.2-0.2l0.7,0.2h0.1l0.6-0.5c0.1-0.1,0.2,0,0.2,0.1v0.8
	c0,0,0,0.1,0.1,0.1l0.6,0.4c0.1,0.1,0.1,0.2,0,0.2l-0.7,0.2c0,0-0.1,0-0.1,0.1l-0.2,0.7c0,0.1-0.2,0.1-0.2,0l-0.5-0.6l-0.1-0.1
	H278.1C278.1,105.3,278,105.2,278.1,105.1z"/>
<path class="st0" d="M369,83.4l0.7,0.2h0.1l0.6-0.5c0.1-0.1,0.2,0,0.2,0.1V84c0,0,0,0.1,0.1,0.1l0.6,0.4c0.1,0.1,0.1,0.2,0,0.2
	l-0.7,0.2c0,0-0.1,0-0.1,0.1l-0.2,0.7c0,0.1-0.2,0.1-0.2,0l-0.4-0.6l-0.1-0.1h-0.8c-0.1,0-0.2-0.1-0.1-0.2l0.5-0.6v-0.1L369,83.4
	C368.8,83.5,368.9,83.4,369,83.4z"/>
<path class="st0" d="M355.6,122.4l0.4,0.6l0.1,0.1h0.8c0.1,0,0.2,0.1,0.1,0.2l-0.5,0.6v0.1l0.2,0.7c0,0.1-0.1,0.2-0.2,0.2l-0.7-0.3
	h-0.1l-0.6,0.4c-0.1,0.1-0.2,0-0.2-0.1v-0.8V124l-0.6-0.5c-0.1-0.1-0.1-0.2,0-0.2l0.7-0.2c0,0,0.1,0,0.1-0.1l0.3-0.7
	C355.4,122.3,355.5,122.3,355.6,122.4z"/>
<path class="st0" d="M288.3,118.7h0.8c0,0,0.1,0,0.1-0.1l0.4-0.6c0.1-0.1,0.2-0.1,0.2,0l0.2,0.7c0,0,0,0.1,0.1,0.1l0.7,0.2
	c0.1,0,0.1,0.2,0,0.2l-0.6,0.4l-0.1,0.1v0.8c0,0.1-0.1,0.2-0.2,0.1l-0.6-0.4h-0.1l-0.7,0.3c-0.1,0-0.2-0.1-0.2-0.2l0.2-0.7v-0.1
	l-0.5-0.6C288.1,118.8,288.2,118.7,288.3,118.7z"/>
<path class="st0" d="M381.5,113.9l0.7,0.3h0.1l0.7-0.4c0.1-0.1,0.2,0,0.2,0.1l-0.1,0.8v0.1l0.6,0.5c0.1,0.1,0,0.2-0.1,0.2l-0.8,0.1
	c0,0-0.1,0-0.1,0.1l-0.3,0.7c0,0.1-0.2,0.1-0.2,0l-0.4-0.7l-0.1-0.1l-0.8-0.1c-0.1,0-0.2-0.1-0.1-0.2l0.5-0.6v-0.1l-0.2-0.7
	C381.3,114,381.5,113.9,381.5,113.9z"/>
<path class="st0" d="M349.9,102.7l0.8,0.1h0.1l0.5-0.6c0.1-0.1,0.2,0,0.2,0.1l0.2,0.7c0,0,0,0.1,0.1,0.1l0.7,0.3
	c0.1,0,0.1,0.2,0,0.2l-0.7,0.4l-0.1,0.1l-0.1,0.8c0,0.1-0.1,0.2-0.2,0.1l-0.6-0.5h-0.1l-0.7,0.2c-0.1,0-0.2-0.1-0.1-0.2l0.3-0.7
	v-0.1l-0.4-0.6C349.7,102.8,349.8,102.7,349.9,102.7z"/>
<path class="st0" d="M342.3,63.7l0.8-0.1c0,0,0.1,0,0.1-0.1l0.3-0.7c0-0.1,0.2-0.1,0.2,0l0.3,0.7l0.1,0.1l0.8,0.1
	c0.1,0,0.1,0.1,0.1,0.2l-0.5,0.5v0.1l0.1,0.8c0,0.1-0.1,0.2-0.2,0.1l-0.7-0.4h-0.1l-0.7,0.4c-0.1,0-0.2,0-0.2-0.1l0.1-0.8v-0.1
	l-0.5-0.5C342.1,63.8,342.1,63.7,342.3,63.7z"/>
<path class="st0" d="M327.2,106.3l0.6-0.5v-0.1l-0.1-0.8c0-0.1,0.1-0.2,0.2-0.1l0.7,0.4h0.1l0.7-0.3c0.1,0,0.2,0,0.2,0.1l-0.2,0.7
	v0.1l0.5,0.6c0.1,0.1,0,0.2-0.1,0.2l-0.8,0.1c0,0-0.1,0-0.1,0.1l-0.4,0.7c-0.1,0.1-0.2,0.1-0.2,0l-0.3-0.7l-0.1-0.1l-0.7-0.1
	C327.2,106.5,327.2,106.4,327.2,106.3z"/>
<path class="st0" d="M302.6,90.6l0.6-0.5v-0.1l-0.1-0.8c0-0.1,0.1-0.2,0.2-0.1l0.7,0.4h0.1l0.7-0.3c0.1,0,0.2,0,0.2,0.1l-0.2,0.7
	v0.1l0.5,0.6c0.1,0.1,0,0.2-0.1,0.2l-0.8,0.1c0,0-0.1,0-0.1,0.1l-0.4,0.7c-0.1,0.1-0.2,0.1-0.2,0l-0.3-0.7l-0.1-0.1l-0.7-0.1
	C302.6,90.8,302.5,90.7,302.6,90.6z"/>
<path class="st0" d="M341.5,111.6l0.7,0.3h0.1l0.6-0.4c0.1-0.1,0.2,0,0.2,0.1l-0.1,0.8v0.1l0.6,0.5c0.1,0.1,0,0.2-0.1,0.2l-0.7,0.2
	c0,0-0.1,0-0.1,0.1l-0.3,0.7c0,0.1-0.2,0.1-0.2,0l-0.4-0.7l-0.1-0.1l-0.8-0.1c-0.1,0-0.2-0.1-0.1-0.2l0.5-0.6v-0.1l-0.2-0.7
	C341.3,111.7,341.4,111.6,341.5,111.6z"/>
<path class="st0" d="M358.8,79l0.8-0.1c0,0,0.1,0,0.1-0.1l0.3-0.7c0-0.1,0.2-0.1,0.2,0l0.3,0.7l0.1,0.1l0.8,0.1
	c0.1,0,0.1,0.1,0.1,0.2l-0.5,0.5v0.1l0.1,0.8c0,0.1-0.1,0.2-0.2,0.1l-0.7-0.4h-0.1l-0.7,0.4c-0.1,0-0.2,0-0.2-0.1l0.1-0.8v-0.1
	l-0.5-0.5C358.6,79.1,358.7,79,358.8,79z"/>
<path class="st0" d="M321.3,50.9l0.6-0.4l0.1-0.1v-0.8c0-0.1,0.1-0.2,0.2-0.1l0.6,0.5h0.1l0.7-0.2c0.1,0,0.2,0.1,0.2,0.2l-0.3,0.7
	v0.1l0.4,0.6c0.1,0.1,0,0.2-0.1,0.2H323c0,0-0.1,0-0.1,0.1l-0.5,0.6c-0.1,0.1-0.2,0.1-0.2,0l-0.2-0.7c0,0,0-0.1-0.1-0.1l-0.7-0.2
	C321.3,51.1,321.3,51,321.3,50.9z"/>
<path class="st0" d="M368.7,101.3l0.8-0.1c0,0,0.1,0,0.1-0.1l0.3-0.7c0-0.1,0.2-0.1,0.2,0l0.3,0.7l0.1,0.1l0.8,0.1
	c0.1,0,0.1,0.1,0.1,0.2l-0.5,0.5v0.1l0.1,0.8c0,0.1-0.1,0.2-0.2,0.1l-0.7-0.4h-0.1l-0.7,0.4c-0.1,0-0.2,0-0.2-0.1l0.1-0.8V102
	l-0.5-0.5C368.6,101.4,368.6,101.3,368.7,101.3z"/>
<path class="st0" d="M320.8,95.8l0.6,0.4h0.1l0.7-0.3c0.1,0,0.2,0.1,0.2,0.2l-0.2,0.7v0.1l0.5,0.6c0.1,0.1,0,0.2-0.1,0.2h-0.8
	c0,0-0.1,0-0.1,0.1l-0.4,0.6c-0.1,0.1-0.2,0.1-0.2,0l-0.2-0.7c0,0,0-0.1-0.1-0.1l-0.7-0.2c-0.1,0-0.1-0.2,0-0.2l0.6-0.5l0.1-0.1
	L320.8,95.8C320.6,95.8,320.7,95.8,320.8,95.8z"/>
<path class="st0" d="M327.7,71.3l0.7,0.3h0.1l0.6-0.4c0.1-0.1,0.2,0,0.2,0.1V72v0.1l0.6,0.5c0.1,0.1,0.1,0.2,0,0.2l-0.7,0.2
	c0,0-0.1,0-0.1,0.1l-0.3,0.7c0,0.1-0.2,0.1-0.2,0l-0.4-0.6l-0.1-0.1h-0.8c-0.1,0-0.2-0.1-0.1-0.2l0.5-0.6v-0.1l-0.2-0.7
	C327.5,71.4,327.6,71.3,327.7,71.3z"/>
<path class="st0" d="M295.7,83l0.7,0.2h0.1l0.6-0.5c0.1-0.1,0.2,0,0.2,0.1l0.1,0.8c0,0,0,0.1,0.1,0.1l0.7,0.4c0.1,0.1,0.1,0.2,0,0.2
	l-0.7,0.3c0,0-0.1,0-0.1,0.1l-0.2,0.7c0,0.1-0.2,0.1-0.2,0.1l-0.5-0.6h-0.1l-0.8,0.1c-0.1,0-0.2-0.1-0.1-0.2l0.4-0.7V84l-0.3-0.7
	C295.5,83.1,295.6,83,295.7,83z"/>
<path class="st0" d="M297.1,66.1l0.7,0.2h0.1l0.6-0.5c0.1-0.1,0.2,0,0.2,0.1l0.1,0.8c0,0,0,0.1,0.1,0.1l0.7,0.4
	c0.1,0.1,0.1,0.2,0,0.2l-0.7,0.3c0,0-0.1,0-0.1,0.1l-0.2,0.7c0,0.1-0.2,0.1-0.2,0.1l-0.5-0.6h-0.1l-0.8,0.1c-0.1,0-0.2-0.1-0.1-0.2
	l0.4-0.7v-0.1l-0.3-0.7C296.9,66.2,297,66.1,297.1,66.1z"/>
<path class="st0" d="M300.8,108.9l0.5,0.6c0,0,0.1,0.1,0.1,0h0.8c0.1,0,0.2,0.1,0.1,0.2l-0.4,0.6v0.1l0.3,0.7c0,0.1-0.1,0.2-0.2,0.2
	l-0.7-0.2h-0.1l-0.8,0.5c-0.1,0.1-0.2,0-0.2-0.1v-0.8c0,0,0-0.1-0.1-0.1l-0.6-0.4c-0.1-0.1-0.1-0.2,0-0.2l0.7-0.3c0,0,0.1,0,0.1-0.1
	l0.2-0.7C300.6,108.8,300.7,108.8,300.8,108.9z"/>
<path class="st0" d="M344.8,85.7l0.5,0.6h0.1l0.8-0.1c0.1,0,0.2,0.1,0.1,0.2l-0.4,0.7v0.1l0.3,0.7c0,0.1,0,0.2-0.1,0.2l-0.8-0.1
	h-0.1l-0.5,0.5c-0.1,0.1-0.2,0-0.2-0.1l-0.1-0.8c0,0,0-0.1-0.1-0.1l-0.7-0.4c-0.1,0-0.1-0.2,0-0.2l0.7-0.3l0.1-0.1l0.1-0.8
	C344.6,85.7,344.7,85.6,344.8,85.7z"/>
<path class="st0" d="M264.9,110.1l0.5,0.6h0.1l0.8-0.1c0.1,0,0.2,0.1,0.1,0.2l-0.4,0.7v0.1l0.3,0.7c0,0.1,0,0.2-0.1,0.2l-0.8-0.1
	h-0.1l-0.5,0.5c-0.1,0.1-0.2,0-0.2-0.1l-0.1-0.8c0,0,0-0.1-0.1-0.1l-0.7-0.4c-0.1,0-0.1-0.2,0-0.2l0.7-0.3l0.1-0.1l0.1-0.8
	C264.7,110.1,264.8,110,264.9,110.1z"/>
<path class="st0" d="M332.4,93.4l0.5,0.6h0.1l0.8-0.1c0.1,0,0.2,0.1,0.1,0.2l-0.4,0.7v0.1l0.3,0.7c0,0.1,0,0.2-0.1,0.2l-0.8-0.1
	h-0.1l-0.5,0.5c-0.1,0.1-0.2,0-0.2-0.1l-0.1-0.8c0,0,0-0.1-0.1-0.1l-0.7-0.4c-0.1,0-0.1-0.2,0-0.2l0.7-0.3l0.1-0.1l0.1-0.8
	C332.2,93.4,332.4,93.4,332.4,93.4z"/>
<path class="st0" d="M280.4,73.5l0.7-0.4l0.1-0.1l0.1-0.8c0-0.1,0.1-0.2,0.2-0.1l0.6,0.5h0.1l0.7-0.2c0.1,0,0.2,0.1,0.1,0.2
	l-0.3,0.7v0.1l0.4,0.7c0.1,0.1,0,0.2-0.1,0.2l-0.8-0.1H282l-0.5,0.6c-0.1,0.1-0.2,0-0.2-0.1l-0.1-0.8c0,0,0-0.1-0.1-0.1L280.4,73.5
	C280.3,73.7,280.3,73.6,280.4,73.5z"/>
<path class="st0" d="M265.5,102.8l0.6-0.5l0.1-0.1v-0.8c0-0.1,0.1-0.2,0.2-0.1l0.6,0.4h0.1l0.7-0.3c0.1,0,0.2,0.1,0.2,0.2l-0.2,0.7
	v0.1l0.5,0.6c0.1,0.1,0,0.2-0.1,0.2h-0.8c0,0-0.1,0-0.1,0.1l-0.4,0.6c-0.1,0.1-0.2,0.1-0.2,0l-0.2-0.7c0,0,0-0.1-0.1-0.1l-0.7-0.2
	C265.4,103,265.4,102.8,265.5,102.8z"/>
<path class="st0" d="M257.4,86.9l0.6-0.5l0.1-0.1v-0.8c0-0.1,0.1-0.2,0.2-0.1l0.6,0.4h0.1l0.7-0.3c0.1,0,0.2,0.1,0.2,0.2l-0.2,0.7
	v0.1l0.5,0.6c0.1,0.1,0,0.2-0.1,0.2h-0.8c0,0-0.1,0-0.1,0.1l-0.4,0.6c-0.1,0.1-0.2,0.1-0.2,0l-0.2-0.7c0,0,0-0.1-0.1-0.1l-0.7-0.2
	C257.4,87.1,257.3,87,257.4,86.9z"/>
<path class="st0" d="M267.9,88.4l0.6,0.5h0.1l0.7-0.2c0.1,0,0.2,0.1,0.2,0.2l-0.3,0.7v0.1l0.4,0.6c0.1,0.1,0,0.2-0.1,0.2h-0.8h-0.1
	l-0.5,0.6c-0.1,0.1-0.2,0.1-0.2,0l-0.2-0.7c0,0,0-0.1-0.1-0.1l-0.7-0.3c-0.1,0-0.1-0.2,0-0.2l0.6-0.4l0.1-0.1v-0.8
	C267.7,88.4,267.8,88.3,267.9,88.4z"/>
<path class="st0" d="M249.5,83.5l0.7,0.2h0.1l0.6-0.5c0.1-0.1,0.2,0,0.2,0.1v0.8c0,0,0,0.1,0.1,0.1l0.6,0.4c0.1,0.1,0.1,0.2,0,0.2
	l-0.7,0.2c0,0-0.1,0-0.1,0.1l-0.2,0.7c0,0.1-0.2,0.1-0.2,0l-0.4-0.6L250,85h-0.8c-0.1,0-0.2-0.1-0.1-0.2l0.5-0.6v-0.1L249.5,83.5
	C249.3,83.6,249.4,83.5,249.5,83.5z"/>
<path class="st0" d="M240.4,103.5l0.4,0.6l0.1,0.1h0.8c0.1,0,0.2,0.1,0.1,0.2l-0.5,0.6v0.1l0.2,0.7c0,0.1-0.1,0.2-0.2,0.2l-0.7-0.3
	h-0.1l-0.6,0.4c-0.1,0.1-0.2,0-0.2-0.1v-0.8V105l-0.6-0.5c-0.1-0.1-0.1-0.2,0-0.2l0.7-0.2c0,0,0.1,0,0.1-0.1l0.3-0.7
	C240.2,103.4,240.3,103.4,240.4,103.5z"/>
<path class="st0" d="M279.5,88l0.7,0.3h0.1l0.7-0.4c0.1-0.1,0.2,0,0.2,0.1l-0.1,0.8v0.1l0.6,0.5c0.1,0.1,0,0.2-0.1,0.2l-0.8,0.1
	c0,0-0.1,0-0.1,0.1l-0.3,0.7c0,0.1-0.2,0.1-0.2,0l-0.4-0.7l-0.1-0.1l-0.8-0.1c-0.1,0-0.2-0.1-0.1-0.2l0.5-0.6v-0.1l-0.2-0.8
	C279.3,88.1,279.4,88,279.5,88z"/>
<path class="st0" d="M248.4,93l0.8-0.1c0,0,0.1,0,0.1-0.1l0.3-0.7c0-0.1,0.2-0.1,0.2,0l0.3,0.7l0.1,0.1l0.8,0.1
	c0.1,0,0.1,0.1,0.1,0.2l-0.5,0.5v0.1l0.1,0.8c0,0.1-0.1,0.2-0.2,0.1l-0.7-0.4h-0.1l-0.7,0.4c-0.1,0-0.2,0-0.2-0.1l0.1-0.8v-0.1
	l-0.5-0.5C248.2,93.2,248.3,93,248.4,93z"/>
<path class="st0" d="M379.5,65.9l0.8-0.1c0,0,0.1,0,0.1-0.1l0.3-0.7c0-0.1,0.2-0.1,0.2,0l0.3,0.7l0.1,0.1l0.8,0.1
	c0.1,0,0.1,0.1,0.1,0.2l-0.5,0.5v0.1l0.1,0.8c0,0.1-0.1,0.2-0.2,0.1l-0.7-0.4h-0.1l-0.7,0.4c-0.1,0-0.2,0-0.2-0.1l0.1-0.8v-0.1
	l-0.5-0.5C379.4,66,379.4,65.9,379.5,65.9z"/>
<path class="st0" d="M150.8,123l0.6-0.5l0.1-0.1v-0.8c0-0.1,0.1-0.2,0.2-0.1l0.6,0.4h0.1l0.7-0.3c0.1,0,0.2,0.1,0.2,0.2l-0.2,0.7
	v0.1l0.5,0.6c0.1,0.1,0,0.2-0.1,0.2h-0.8c0,0-0.1,0-0.1,0.1l-0.4,0.6c-0.1,0.1-0.2,0.1-0.2,0l-0.2-0.7c0,0,0-0.1-0.1-0.1l-0.7-0.2
	C150.7,123.2,150.7,123,150.8,123z"/>
<path class="st0" d="M170.6,116.2l0.4-0.6v-0.1l-0.3-0.7c0-0.1,0.1-0.2,0.2-0.2l0.7,0.2h0.1l0.6-0.5c0.1-0.1,0.2,0,0.2,0.1v0.8
	c0,0,0,0.1,0.1,0.1l0.6,0.4c0.1,0.1,0.1,0.2,0,0.2l-0.7,0.2c0,0-0.1,0-0.1,0.1l-0.2,0.7c0,0.1-0.2,0.1-0.2,0l-0.5-0.6l-0.1-0.1
	H170.6C170.6,116.4,170.5,116.3,170.6,116.2z"/>
<path class="st0" d="M249.7,117.1l0.4-0.6v-0.1l-0.3-0.7c0-0.1,0.1-0.2,0.2-0.2l0.7,0.2h0.1l0.6-0.5c0.1-0.1,0.2,0,0.2,0.1v0.8
	c0,0,0,0.1,0.1,0.1l0.6,0.4c0.1,0.1,0.1,0.2,0,0.2l-0.7,0.2c0,0-0.1,0-0.1,0.1l-0.2,0.7c0,0.1-0.2,0.1-0.2,0l-0.5-0.6l-0.1-0.1
	L249.7,117.1C249.7,117.3,249.6,117.2,249.7,117.1z"/>
<path class="st0" d="M142.9,118.3l0.7,0.2h0.1l0.6-0.5c0.1-0.1,0.2,0,0.2,0.1v0.8c0,0,0,0.1,0.1,0.1l0.6,0.4c0.1,0.1,0.1,0.2,0,0.2
	l-0.7,0.2c0,0-0.1,0-0.1,0.1l-0.2,0.7c0,0.1-0.2,0.1-0.2,0l-0.4-0.6l-0.1-0.1h-0.8c-0.1,0-0.2-0.1-0.1-0.2l0.5-0.6v-0.1L142.9,118.3
	C142.7,118.4,142.8,118.3,142.9,118.3z"/>
<path class="st0" d="M218.4,121l0.7,0.2h0.1l0.6-0.5c0.1-0.1,0.2,0,0.2,0.1v0.8c0,0,0,0.1,0.1,0.1l0.6,0.4c0.1,0.1,0.1,0.2,0,0.2
	l-0.7,0.2c0,0-0.1,0-0.1,0.1l-0.2,0.7c0,0.1-0.2,0.1-0.2,0l-0.4-0.6l-0.1-0.1h-0.8c-0.1,0-0.2-0.1-0.1-0.2l0.5-0.6v-0.1L218.4,121
	C218.2,121.1,218.3,121,218.4,121z"/>
<path class="st0" d="M121,118.2l0.8-0.1c0,0,0.1,0,0.1-0.1l0.3-0.7c0-0.1,0.2-0.1,0.2,0l0.3,0.7l0.1,0.1l0.8,0.1
	c0.1,0,0.1,0.1,0.1,0.2l-0.5,0.5v0.1l0.1,0.8c0,0.1-0.1,0.2-0.2,0.1l-0.7-0.4h-0.1l-0.7,0.4c-0.1,0-0.2,0-0.2-0.1l0.1-0.8v-0.1
	l-0.5-0.5C120.9,118.4,120.9,118.2,121,118.2z"/>
<path class="st0" d="M141.5,114.3l0.8-0.1c0,0,0.1,0,0.1-0.1l0.3-0.7c0-0.1,0.2-0.1,0.2,0l0.3,0.7l0.1,0.1l0.8,0.1
	c0.1,0,0.1,0.1,0.1,0.2l-0.5,0.5v0.1l0.1,0.8c0,0.1-0.1,0.2-0.2,0.1l-0.7-0.4h-0.1l-0.7,0.4c-0.1,0-0.2,0-0.2-0.1l0.1-0.8V115
	l-0.5-0.5C141.4,114.4,141.4,114.3,141.5,114.3z"/>
<path class="st0" d="M69.3,104.2l0.7,0.3H70l0.6-0.4c0.1-0.1,0.2,0,0.2,0.1v0.8v0.1l0.6,0.5c0.1,0.1,0.1,0.2,0,0.2l-0.7,0.2
	c0,0-0.1,0-0.1,0.1l-0.3,0.7c0,0.1-0.2,0.1-0.2,0l-0.4-0.6l-0.1-0.1h-0.8c-0.1,0-0.2-0.1-0.1-0.2l0.5-0.6v-0.1l-0.2-0.7
	C69.1,104.3,69.2,104.2,69.3,104.2z"/>
<path class="st0" d="M245.8,121h0.8c0,0,0.1,0,0.1-0.1l0.4-0.6c0.1-0.1,0.2-0.1,0.2,0l0.2,0.7c0,0,0,0.1,0.1,0.1l0.7,0.2
	c0.1,0,0.1,0.2,0,0.2l-0.6,0.4l-0.1,0.1v0.8c0,0.1-0.1,0.2-0.2,0.1l-0.6-0.4h-0.1l-0.7,0.3c-0.1,0-0.2-0.1-0.2-0.2l0.2-0.7v-0.1
	l-0.5-0.6C245.6,121.1,245.7,121,245.8,121z"/>
<path class="st0" d="M163.2,103.8l0.8-0.1c0,0,0.1,0,0.1-0.1l0.3-0.7c0-0.1,0.2-0.1,0.2,0l0.3,0.7l0.1,0.1l0.8,0.1
	c0.1,0,0.1,0.1,0.1,0.2l-0.5,0.5v0.1l0.1,0.8c0,0.1-0.1,0.2-0.2,0.1l-0.7-0.4h-0.1l-0.7,0.4c-0.1,0-0.2,0-0.2-0.1l0.1-0.8v-0.1
	l-0.5-0.5C163.1,103.9,163.1,103.8,163.2,103.8z"/>
<path class="st0" d="M214.4,107.4l0.7-0.2c0,0,0.1,0,0.1-0.1l0.2-0.7c0-0.1,0.2-0.1,0.2,0l0.4,0.6l0.1,0.1h0.8
	c0.1,0,0.2,0.1,0.1,0.2l-0.5,0.6v0.1l0.2,0.7c0,0.1-0.1,0.2-0.2,0.2l-0.7-0.3h-0.1l-0.6,0.4c-0.1,0.1-0.2,0-0.2-0.1v-0.8
	c0,0,0-0.1-0.1-0.1l-0.6-0.5C214.3,107.6,214.3,107.4,214.4,107.4z"/>
<path class="st0" d="M223.8,90.4l0.7,0.3h0.1l0.7-0.4c0.1-0.1,0.2,0,0.2,0.1l-0.1,0.8v0.1l0.6,0.5c0.1,0.1,0,0.2-0.1,0.2l-0.8,0.1
	c0,0-0.1,0-0.1,0.1l-0.3,0.7c0,0.1-0.2,0.1-0.2,0l-0.4-0.7l-0.1-0.1l-0.8-0.1c-0.1,0-0.2-0.1-0.1-0.2l0.5-0.6v-0.1l-0.2-0.7
	C223.6,90.4,223.7,90.4,223.8,90.4z"/>
<path class="st0" d="M204.3,108.8l0.7,0.2h0.1l0.6-0.5c0.1-0.1,0.2,0,0.2,0.1l0.1,0.8c0,0,0,0.1,0.1,0.1l0.7,0.4
	c0.1,0.1,0.1,0.2,0,0.2l-0.7,0.3l-0.1,0.1l-0.1,0.8c0,0.1-0.1,0.1-0.2,0.1l-0.6-0.8H205l-0.8,0.1c-0.1,0-0.2-0.1-0.1-0.2l0.4-0.7
	v-0.1l-0.3-0.7C204.1,108.9,204.2,108.8,204.3,108.8z"/>
<path class="st0" d="M87.5,68.2l0.7-0.2c0,0,0.1,0,0.1-0.1l0.2-0.7c0-0.1,0.2-0.1,0.2,0l0.4,0.6l0.1,0.1h0.8c0.1,0,0.2,0.1,0.1,0.2
	l-0.5,0.6v0.1l0.2,0.7c0,0.1-0.1,0.2-0.2,0.2l-0.7-0.3h-0.1l-0.6,0.4c-0.1,0.1-0.2,0-0.2-0.1v-0.8c0,0,0-0.1-0.1-0.1l-0.6-0.5
	C87.4,68.3,87.4,68.2,87.5,68.2z"/>
<path class="st0" d="M121.4,103.9l0.6-0.5l0.1-0.1v-0.8c0-0.1,0.1-0.2,0.2-0.1l0.6,0.4h0.1l0.7-0.3c0.1,0,0.2,0.1,0.2,0.2l-0.2,0.7
	v0.1l0.5,0.6c0.1,0.1,0,0.2-0.1,0.2h-0.8c0,0-0.1,0-0.1,0.1l-0.4,0.6c-0.1,0.1-0.2,0.1-0.2,0l-0.2-0.7c0,0,0-0.1-0.1-0.1l-0.7-0.2
	C121.3,104.1,121.3,103.9,121.4,103.9z"/>
<path class="st0" d="M173.3,63l0.4-0.6v-0.1l-0.3-0.7c0-0.1,0.1-0.2,0.2-0.2l0.7,0.2h0.1l0.6-0.5c0.1-0.1,0.2,0,0.2,0.1V62
	c0,0,0,0.1,0.1,0.1l0.6,0.4c0.1,0.1,0.1,0.2,0,0.2l-0.7,0.2c0,0-0.1,0-0.1,0.1l-0.2,0.7c0,0.1-0.2,0.1-0.2,0l-0.5-0.6L174,63H173.3
	C173.3,63.2,173.3,63.1,173.3,63z"/>
<path class="st0" d="M103.1,90.3l0.6,0.5h0.1l0.7-0.2c0.1,0,0.2,0.1,0.2,0.2l-0.3,0.7v0.1l0.4,0.6c0.1,0.1,0,0.2-0.1,0.2h-0.8h-0.1
	l-0.5,0.6c-0.1,0.1-0.2,0.1-0.2,0l-0.2-0.7c0,0,0-0.1-0.1-0.1l-0.7-0.3c-0.1,0-0.1-0.2,0-0.2l0.6-0.4l0.1-0.1v-0.8
	C102.9,90.3,103,90.3,103.1,90.3z"/>
<path class="st0" d="M142.1,67l0.7,0.2h0.1l0.6-0.5c0.1-0.1,0.2,0,0.2,0.1v0.8c0,0,0,0.1,0.1,0.1l0.6,0.4c0.1,0.1,0.1,0.2,0,0.2
	l-0.7,0.2c0,0-0.1,0-0.1,0.1l-0.2,0.7c0,0.1-0.2,0.1-0.2,0l-0.4-0.6l-0.1-0.1h-0.8c-0.1,0-0.2-0.1-0.1-0.2l0.5-0.6v-0.1L142.1,67
	C141.9,67,142,66.9,142.1,67z"/>
<path class="st0" d="M132.5,95.5l0.7,0.3h0.1l0.7-0.4c0.1-0.1,0.2,0,0.2,0.1l-0.2,0.8v0.1l0.6,0.5c0.1,0.1,0,0.2-0.1,0.2l-0.8,0.1
	c0,0-0.1,0-0.1,0.1l-0.3,0.7c0,0.1-0.2,0.1-0.2,0l-0.4-0.7l-0.1-0.1l-0.8-0.1c-0.1,0-0.2-0.1-0.1-0.2l0.5-0.6v-0.1l-0.2-0.7
	C132.3,95.5,132.4,95.5,132.5,95.5z"/>
<path class="st0" d="M145.8,78.8h0.8c0,0,0.1,0,0.1-0.1l0.5-0.6c0.1-0.1,0.2-0.1,0.2,0l0.2,0.7c0,0,0,0.1,0.1,0.1l0.7,0.2
	c0.1,0,0.1,0.2,0,0.2l-0.6,0.4l-0.1,0.1v0.8c0,0.1-0.1,0.2-0.2,0.1l-0.6-0.5h-0.1l-0.7,0.2c-0.1,0-0.2-0.1-0.2-0.2l0.3-0.7v-0.1
	L145.8,78.8C145.6,78.9,145.7,78.8,145.8,78.8z"/>
<path class="st0" d="M197.2,77.3l0.8,0.4h0.1l0.7-0.4c0.1-0.1,0.2,0,0.2,0.1l-0.1,0.8v0.1l0.6,0.5c0.1,0.1,0,0.2-0.1,0.2l-0.8,0.1
	c0,0-0.1,0-0.1,0.1l-0.3,0.7c0,0.1-0.2,0.1-0.2,0l-0.4-0.7l-0.1-0.1l-0.8-0.1c-0.1,0-0.2-0.1-0.1-0.2l0.6-0.6v-0.1l-0.2-0.8
	C197,77.3,197.1,77.2,197.2,77.3z"/>
<path class="st0" d="M132.6,79.2l0.7,0.3h0.1l0.7-0.4c0.1-0.1,0.2,0,0.2,0.1l-0.1,0.8v0.1l0.6,0.5c0.1,0.1,0,0.2-0.1,0.2l-0.7,0.2
	c0,0-0.1,0-0.1,0.1l-0.3,0.7c0,0.1-0.2,0.1-0.2,0L133,81l-0.1-0.1l-0.8-0.1c-0.1,0-0.2-0.1-0.1-0.2l0.5-0.6V80l-0.2-0.7
	C132.4,79.2,132.5,79.1,132.6,79.2z"/>
<path class="st0" d="M180.1,77.5l0.8-0.1c0,0,0.1,0,0.1-0.1l0.4-0.7c0.1-0.1,0.2-0.1,0.3,0l0.4,0.7l0.1,0.1l0.8,0.1
	c0.1,0,0.2,0.2,0.1,0.2l-0.6,0.6v0.1l0.1,0.8c0,0.1-0.1,0.2-0.2,0.1l-0.7-0.4h-0.1l-0.7,0.4c-0.1,0.1-0.2,0-0.2-0.1l0.1-0.8v-0.1
	l-0.6-0.6C180,77.6,180,77.5,180.1,77.5z"/>
<path class="st0" d="M184.2,76.9l0.5-0.7v-0.1l-0.3-0.8c0-0.1,0.1-0.2,0.2-0.2l0.8,0.2h0.1l0.7-0.5c0.1-0.1,0.2,0,0.2,0.1v0.8
	c0,0,0,0.1,0.1,0.1l0.7,0.4c0.1,0.1,0.1,0.2,0,0.2l-0.8,0.3c0,0-0.1,0-0.1,0.1l-0.2,0.8c0,0.1-0.2,0.1-0.2,0l-0.5-0.6l-0.1-0.1h-0.8
	C184.2,77,184.1,76.9,184.2,76.9z"/>
<path class="st0" d="M198.2,88.8l0.7-0.5l0.1-0.1v-0.8c0-0.1,0.1-0.2,0.2-0.1l0.7,0.5h0.1l0.8-0.3c0.1,0,0.2,0.1,0.2,0.2l-0.3,0.8
	v0.1l0.5,0.7c0.1,0.1,0,0.2-0.1,0.2h-0.8c0,0-0.1,0-0.1,0.1l-0.5,0.7c-0.1,0.1-0.2,0.1-0.2,0l-0.2-0.8c0,0,0-0.1-0.1-0.1l-0.8-0.2
	C198.2,89,198.1,88.9,198.2,88.8z"/>
<path class="st0" d="M176.4,87.6l0.5,0.6h0.1l0.8-0.1c0.1,0,0.2,0.1,0.1,0.2l-0.4,0.7v0.1l0.4,0.7c0,0.1,0,0.2-0.1,0.2l-0.8-0.1
	h-0.1l-0.5,0.5c-0.1,0.1-0.2,0-0.2-0.1l-0.1-0.8c0,0,0-0.1-0.1-0.1l-0.7-0.3c-0.1,0-0.1-0.2,0-0.2l0.7-0.3l0.1-0.1l0.1-0.8
	C176.2,87.6,176.3,87.6,176.4,87.6z"/>
<path class="st0" d="M169.5,70.9l0.6,0.5h0.1l0.7-0.2c0.1,0,0.2,0.1,0.2,0.2l-0.3,0.7v0.1l0.4,0.6c0.1,0.1,0,0.2-0.1,0.2h-0.8
	c0,0-0.1,0-0.1,0.1l-0.5,0.6c-0.1,0.1-0.2,0.1-0.2,0l-0.2-0.7c0,0,0-0.1-0.1-0.1l-0.7-0.3c-0.1,0-0.1-0.2,0-0.2l0.6-0.4l0.1-0.1
	v-0.8C169.3,70.9,169.4,70.9,169.5,70.9z"/>
<path class="st0" d="M169.4,67h0.8c0,0,0.1,0,0.1-0.1l0.4-0.6c0.1-0.1,0.2-0.1,0.2,0L171,67c0,0,0,0.1,0.1,0.1l0.7,0.2
	c0.1,0,0.1,0.2,0,0.2l-0.6,0.4l-0.1,0.1v0.8c0,0.1-0.1,0.2-0.2,0.1l-0.6-0.4h-0.1l-0.7,0.3c-0.1,0-0.2-0.1-0.2-0.2l0.2-0.7v-0.1
	l-0.5-0.6C169.3,67.1,169.3,67,169.4,67z"/>
<path class="st0" d="M141.9,54.8l0.7-0.2c0,0,0.1,0,0.1-0.1l0.2-0.7c0-0.1,0.2-0.1,0.2,0l0.4,0.6l0.1,0.1h0.8c0.1,0,0.2,0.1,0.1,0.2
	l-0.5,0.6v0.1l0.2,0.7c0,0.1-0.1,0.2-0.2,0.2l-0.7-0.3h-0.1l-0.6,0.4c-0.1,0.1-0.2,0-0.2-0.1v-0.8c0,0,0-0.1-0.1-0.1l-0.6-0.5
	C141.8,54.9,141.8,54.8,141.9,54.8z"/>
<path class="st0" d="M152.8,36.4l0.7,0.3h0.1l0.7-0.4c0.1-0.1,0.2,0,0.2,0.1l-0.1,0.8v0.1l0.6,0.5c0.1,0.1,0,0.2-0.1,0.2l-0.8,0.1
	c0,0-0.1,0-0.1,0.1l-0.3,0.7c0,0.1-0.2,0.1-0.2,0l-0.4-0.7l-0.1-0.1l-0.8-0.1c-0.1,0-0.2-0.1-0.1-0.2l0.7-0.4v-0.1l-0.2-0.7
	C152.6,36.4,152.7,36.3,152.8,36.4z"/>
<path class="st0" d="M124.3,49.9l0.7,0.2h0.1l0.6-0.5c0.1-0.1,0.2,0,0.2,0.1l0.1,0.8c0,0,0,0.1,0.1,0.1l0.7,0.4
	c0.1,0.1,0.1,0.2,0,0.2l-0.7,0.3l-0.1,0.1l-0.1,0.8c0,0.1-0.1,0.1-0.2,0.1l-0.5-0.6H125l-0.8,0.1c-0.1,0-0.2-0.1-0.1-0.2l0.4-0.7
	v-0.1l-0.3-0.7C124.1,50,124.2,49.9,124.3,49.9z"/>
<path class="st0" d="M206.9,131.6l0.7-0.4l0.1-0.1l0.1-0.8c0-0.1,0.1-0.2,0.2-0.1l0.6,0.5h0.1l0.7-0.2c0.1,0,0.2,0.1,0.1,0.2
	l-0.3,0.7v0.1l0.4,0.7c0.1,0.1,0,0.2-0.1,0.2l-0.8-0.1h-0.1l-0.5,0.6c-0.1,0.1-0.2,0-0.2-0.1l-0.1-0.7c0,0,0-0.1-0.1-0.1
	L206.9,131.6C206.8,131.8,206.8,131.7,206.9,131.6z"/>
<path class="st0" d="M244.8,135.2l0.6-0.4l0.1-0.1v-0.8c0-0.1,0.1-0.2,0.2-0.1l0.6,0.5h0.1l0.7-0.2c0.1,0,0.2,0.1,0.2,0.2L247,135
	v0.1l0.4,0.6c0.1,0.1,0,0.2-0.1,0.2h-0.8c0,0-0.1,0-0.1,0.1l-0.5,0.6c-0.1,0.1-0.2,0.1-0.2,0l-0.2-0.7c0,0,0-0.1-0.1-0.1l-0.7-0.2
	C244.8,135.4,244.8,135.3,244.8,135.2z"/>
<path class="st0" d="M317.5,136.9l0.8-0.1c0,0,0.1,0,0.1-0.1l0.3-0.7c0-0.1,0.2-0.1,0.2,0l0.3,0.7l0.1,0.1l0.8,0.1
	c0.1,0,0.1,0.1,0.1,0.2l-0.5,0.5v0.1l0.1,0.8c0,0.1-0.1,0.2-0.2,0.1l-0.7-0.4h-0.1l-0.7,0.4c-0.1,0-0.2,0-0.2-0.1l0.1-0.8v-0.1
	l-0.5-0.5C317.4,137,317.4,136.9,317.5,136.9z"/>
<path class="st0" d="M368.8,140.5l0.7-0.2c0,0,0.1,0,0.1-0.1l0.2-0.7c0-0.1,0.2-0.1,0.2,0l0.4,0.6l0.1,0.1h0.8
	c0.1,0,0.2,0.1,0.1,0.2l-0.5,0.6v0.1l0.2,0.7c0,0.1-0.1,0.2-0.2,0.2l-0.7-0.3H370l-0.6,0.4c-0.1,0.1-0.2,0-0.2-0.1v-0.8
	c0,0,0-0.1-0.1-0.1l-0.6-0.5C368.7,140.7,368.7,140.5,368.8,140.5z"/>
<path class="st0" d="M378.1,123.5l0.7,0.3h0.1l0.7-0.4c0.1-0.1,0.2,0,0.2,0.1l-0.1,0.8v0.1l0.6,0.5c0.1,0.1,0,0.2-0.1,0.2l-0.8,0.1
	c0,0-0.1,0-0.1,0.1l-0.3,0.7c0,0.1-0.2,0.1-0.2,0l-0.4-0.7l-0.1-0.1l-0.8-0.1c-0.1,0-0.2-0.1-0.1-0.2l0.5-0.6v-0.1l-0.2-0.7
	C377.9,123.5,378,123.4,378.1,123.5z"/>
<path class="st0" d="M90.1,119.1l0.4-0.6v-0.1l-0.3-0.7c0-0.1,0.1-0.2,0.2-0.2l0.7,0.2h0.1l0.6-0.5c0.1-0.1,0.2,0,0.2,0.1v0.8
	c0,0,0,0.1,0.1,0.1l0.6,0.4c0.1,0.1,0.1,0.2,0,0.2l-0.7,0.2c0,0-0.1,0-0.1,0.1l-0.2,0.7c0,0.1-0.2,0.1-0.2,0l-0.5-0.6l-0.1-0.1H90.1
	C90.1,119.3,90.1,119.2,90.1,119.1z"/>
<path class="st0" d="M116.9,143l0.8-0.1c0,0,0.1,0,0.1-0.1l0.4-0.7c0.1-0.1,0.2-0.1,0.3,0l0.4,0.7l0.1,0.1l0.8,0.1
	c0.1,0,0.2,0.2,0.1,0.2l-0.6,0.6v0.1l0.1,0.8c0,0.1-0.1,0.2-0.2,0.1l-0.7-0.4h-0.1l-0.7,0.4c-0.1,0.1-0.2,0-0.2-0.1l0.1-0.8v-0.1
	l-0.6-0.6C116.8,143.2,116.8,143.1,116.9,143z"/>
<path class="st0" d="M119.9,136.2l0.5-0.7v-0.1l-0.3-0.8c0-0.1,0.1-0.2,0.2-0.2l0.8,0.2h0.1l0.7-0.5c0.1-0.1,0.2,0,0.2,0.1v0.8
	c0,0,0,0.1,0.1,0.1l0.7,0.4c0.1,0.1,0.1,0.2,0,0.2L122,136c0,0-0.1,0-0.1,0.1l-0.2,0.8c0,0.1-0.2,0.1-0.2,0l-0.5-0.6l-0.1-0.1h-0.8
	C119.9,136.4,119.8,136.3,119.9,136.2z"/>
<path class="st0" d="M81.3,132.8l0.6,0.5H82l0.7-0.2c0.1,0,0.2,0.1,0.2,0.2l-0.3,0.7v0.1l0.4,0.6c0.1,0.1,0,0.2-0.1,0.2h-0.8
	c0,0-0.1,0-0.1,0.1l-0.5,0.6c-0.1,0.1-0.2,0.1-0.2,0l-0.2-0.7c0,0,0-0.1-0.1-0.1l-0.7-0.3c-0.1,0-0.1-0.2,0-0.2l0.6-0.4l0.1-0.1V133
	C81.1,132.8,81.2,132.7,81.3,132.8z"/>
<path class="st0" d="M70.4,125.4h0.8c0,0,0.1,0,0.1-0.1l0.4-0.6c0.1-0.1,0.2-0.1,0.2,0l0.2,0.7c0,0,0,0.1,0.1,0.1l0.7,0.2
	c0.1,0,0.1,0.2,0,0.2l-0.6,0.4l-0.1,0.1v0.8c0,0.1-0.1,0.2-0.2,0.1l-0.6-0.4h-0.1l-0.7,0.3c-0.1,0-0.2-0.1-0.2-0.2l0.2-0.7v-0.1
	l-0.5-0.6C70.3,125.5,70.3,125.4,70.4,125.4z"/>
<path class="st0" d="M228.4,51l0.7-0.4l0.1-0.1l0.1-0.8c0-0.1,0.1-0.2,0.2-0.1l0.6,0.5h0.1l0.7-0.2c0.1,0,0.2,0.1,0.1,0.2l-0.3,0.7
	v0.1l0.4,0.7c0.1,0.1,0,0.2-0.1,0.2l-0.8-0.1H230l-0.5,0.6c-0.1,0.1-0.2,0-0.2-0.1l-0.1-0.7c0,0,0-0.1-0.1-0.1L228.4,51
	C228.3,51.2,228.3,51,228.4,51z"/>
<path class="st0" d="M237.8,68.1l0.7-0.4l0.1-0.1l0.1-0.8c0-0.1,0.1-0.2,0.2-0.1l0.6,0.5h0.1l0.7-0.2c0.1,0,0.2,0.1,0.1,0.2
	l-0.3,0.7V68l0.4,0.7c0.1,0.1,0,0.2-0.1,0.2l-0.8-0.1h-0.1l-0.5,0.6c-0.1,0.1-0.2,0-0.2-0.1l-0.1-0.8c0,0,0-0.1-0.1-0.1L237.8,68.1
	C237.7,68.3,237.7,68.2,237.8,68.1z"/>
<path class="st0" d="M221.3,70.9l0.6-0.5l0.1-0.1v-0.8c0-0.1,0.1-0.2,0.2-0.1l0.6,0.4h0.1l0.7-0.3c0.1,0,0.2,0.1,0.2,0.2l-0.2,0.7
	v0.1l0.5,0.6c0.1,0.1,0,0.2-0.1,0.2h-0.8c0,0-0.1,0-0.1,0.1l-0.4,0.6c-0.1,0.1-0.2,0.1-0.2,0l-0.2-0.7c0,0,0-0.1-0.1-0.1l-0.7-0.2
	C221.3,71.1,221.2,71,221.3,70.9z"/>
<path class="st0" d="M226.8,77.6l0.6,0.5h0.1l0.7-0.2c0.1,0,0.2,0.1,0.2,0.2l-0.3,0.7v0.1l0.4,0.6c0.1,0.1,0,0.2-0.1,0.2h-0.8h-0.1
	l-0.5,0.6c-0.1,0.1-0.2,0.1-0.2,0l-0.2-0.7c0,0,0-0.1-0.1-0.1l-0.7-0.3c-0.1,0-0.1-0.2,0-0.2l0.6-0.4l0.1-0.1v-0.8
	C226.5,77.6,226.7,77.5,226.8,77.6z"/>
<path class="st0" d="M213.4,66.2l0.7,0.2h0.1l0.6-0.5c0.1-0.1,0.2,0,0.2,0.1v0.8c0,0,0,0.1,0.1,0.1l0.6,0.4c0.1,0.1,0.1,0.2,0,0.2
	l-0.7,0.2c0,0-0.1,0-0.1,0.1l-0.2,0.7c0,0.1-0.2,0.1-0.2,0l-0.4-0.6l-0.1-0.1h-0.8c-0.1,0-0.2-0.1-0.1-0.2l0.5-0.6v-0.1L213.4,66.2
	C213.2,66.3,213.3,66.2,213.4,66.2z"/>
<path class="st0" d="M240.6,77.1l0.7,0.3h0.1L242,77c0.1-0.1,0.2,0,0.2,0.1l-0.1,0.8v0.1l0.6,0.5c0.1,0.1,0,0.2-0.1,0.2l-0.8,0.1
	c0,0-0.1,0-0.1,0.1l-0.3,0.7c0,0.1-0.2,0.1-0.2,0l-0.4-0.7l-0.1-0.1l-0.8-0.1c-0.1,0-0.2-0.1-0.1-0.2l0.5-0.6v-0.1l-0.2-0.8
	C240.4,77.2,240.5,77.1,240.6,77.1z"/>
<path class="st0" d="M212.4,75.7l0.8-0.1c0,0,0.1,0,0.1-0.1l0.3-0.7c0-0.1,0.2-0.1,0.2,0l0.3,0.7l0.1,0.1l0.8,0.1
	c0.1,0,0.1,0.1,0.1,0.2l-0.5,0.5v0.1l0.1,0.8c0,0.1-0.1,0.2-0.2,0.1l-0.7-0.4h-0.1l-0.7,0.4c-0.1,0-0.2,0-0.2-0.1l0.1-0.8v-0.1
	l-0.5-0.5C212.2,75.9,212.3,75.7,212.4,75.7z"/>
</svg>
